<svg xmlns="http://www.w3.org/2000/svg" viewBox="0 0 56 30"><title>cm_active_2x1</title><rect x="2" y="2" width="52" height="26" rx="4" style="fill:none;stroke:#06f;stroke-miterlimit:10;stroke-width:1.5px"/><path d="M26.09,17.17h-2.9v-.52l1.1-1.11a8.64,8.64,0,0,0,.65-.71,1.64,1.64,0,0,0,.23-.39,1.1,1.1,0,0,0,.08-.4.6.6,0,0,0-.18-.46.66.66,0,0,0-.48-.16,1.36,1.36,0,0,0-.48.09,2.48,2.48,0,0,0-.53.32l-.37-.45A2.66,2.66,0,0,1,23.9,13a2.18,2.18,0,0,1,.72-.12,1.4,1.4,0,0,1,1,.31,1.06,1.06,0,0,1,.36.84,1.45,1.45,0,0,1-.1.55,2.62,2.62,0,0,1-.32.54q-.22.27-.72.75l-.74.72v0h2Z" style="fill:#06f"/><path d="M27.56,15.52l-1.09-1.59h.79L28,15.07l.74-1.14h.78l-1.09,1.59,1.15,1.65H28.8L28,16l-.8,1.21h-.78Z" style="fill:#06f"/><path d="M31.94,17.17h-.69V14.41c0-.33,0-.59,0-.79,0,.05-.1.1-.16.16l-.66.54-.35-.44,1.26-1h.58Z" style="fill:#06f"/></svg>