<svg xmlns="http://www.w3.org/2000/svg" viewBox="0 0 50 30"><title>cm_active_16x9</title><rect x="2" y="2" width="46" height="26" rx="4" style="fill:none;stroke:#06f;stroke-miterlimit:10;stroke-width:1.5px"/><path d="M20.5,17.14h-.69V14.38c0-.34,0-.6,0-.79a1.17,1.17,0,0,1-.16.15l-.66.54-.35-.43,1.26-1h.58Z" style="fill:#06f"/><path d="M21.91,15.31c0-1.67.68-2.51,2.05-2.51a2.68,2.68,0,0,1,.54,0v.58a1.57,1.57,0,0,0-.51-.07,1.35,1.35,0,0,0-1,.37,1.8,1.8,0,0,0-.37,1.18h0a1,1,0,0,1,.39-.36,1.22,1.22,0,0,1,.59-.13,1.17,1.17,0,0,1,.9.35,1.37,1.37,0,0,1,.33,1,1.49,1.49,0,0,1-.38,1.07,1.35,1.35,0,0,1-1,.39,1.47,1.47,0,0,1-.8-.22,1.44,1.44,0,0,1-.53-.65A2.59,2.59,0,0,1,21.91,15.31Zm1.49,1.32A.69.69,0,0,0,24,16.4a1,1,0,0,0,.19-.65.86.86,0,0,0-.18-.58.67.67,0,0,0-.54-.21,1,1,0,0,0-.41.09.81.81,0,0,0-.29.26.57.57,0,0,0-.11.34,1.09,1.09,0,0,0,.22.7A.69.69,0,0,0,23.4,16.63Z" style="fill:#06f"/><path d="M26.27,15.48,25.19,13.9H26L26.71,15l.74-1.13h.78l-1.09,1.58,1.15,1.66h-.78l-.8-1.21-.8,1.21h-.78Z" style="fill:#06f"/><path d="M31.53,14.69A2.91,2.91,0,0,1,31,16.57a1.87,1.87,0,0,1-1.54.63,2.41,2.41,0,0,1-.56-.05v-.58a2,2,0,0,0,.53.08,1.35,1.35,0,0,0,1-.38,1.85,1.85,0,0,0,.37-1.17h0a1.16,1.16,0,0,1-.42.38,1.45,1.45,0,0,1-.57.11,1.19,1.19,0,0,1-.9-.35,1.37,1.37,0,0,1-.32-1A1.48,1.48,0,0,1,29,13.2a1.34,1.34,0,0,1,1-.4,1.52,1.52,0,0,1,.8.22,1.48,1.48,0,0,1,.52.65A2.58,2.58,0,0,1,31.53,14.69ZM30,13.37a.66.66,0,0,0-.55.24,1,1,0,0,0-.19.65.87.87,0,0,0,.18.58A.67.67,0,0,0,30,15a.82.82,0,0,0,.58-.2.63.63,0,0,0,.24-.49,1.19,1.19,0,0,0-.1-.49.92.92,0,0,0-.28-.36A.75.75,0,0,0,30,13.37Z" style="fill:#06f"/></svg>