<svg xmlns="http://www.w3.org/2000/svg" viewBox="0 0 30 30"><title>cm_border</title><rect x="2" y="2" width="26" height="26" rx="4" transform="translate(0 30) rotate(-90)" style="fill:none;stroke:#000000;stroke-miterlimit:10;stroke-width:1.5px"/><rect x="7.5" y="7.49" width="15" height="15" style="fill:none;stroke:#000000;stroke-miterlimit:10"/><line x1="7.5" y1="7.49" x2="3.18" y2="3.16" style="fill:none;stroke:#000000;stroke-miterlimit:10"/><line x1="7.5" y1="22.49" x2="3.16" y2="26.82" style="fill:none;stroke:#000000;stroke-miterlimit:10"/><line x1="22.5" y1="22.49" x2="26.84" y2="26.82" style="fill:none;stroke:#000000;stroke-miterlimit:10"/><line x1="22.5" y1="7.49" x2="26.82" y2="3.16" style="fill:none;stroke:#000000;stroke-miterlimit:10"/><line x1="22.5" y1="18.44" x2="28" y2="18.44" style="fill:none;stroke:#000000;stroke-miterlimit:10"/><line x1="22.5" y1="11.61" x2="28" y2="11.61" style="fill:none;stroke:#000000;stroke-miterlimit:10"/><line x1="2" y1="18.44" x2="7.5" y2="18.44" style="fill:none;stroke:#000000;stroke-miterlimit:10"/><line x1="2" y1="11.61" x2="7.5" y2="11.61" style="fill:none;stroke:#000000;stroke-miterlimit:10"/><line x1="11.58" y1="22.49" x2="11.58" y2="28" style="fill:none;stroke:#000000;stroke-miterlimit:10"/><line x1="18.42" y1="22.49" x2="18.42" y2="28" style="fill:none;stroke:#000000;stroke-miterlimit:10"/><line x1="11.58" y1="2" x2="11.58" y2="7.49" style="fill:none;stroke:#000000;stroke-miterlimit:10"/><line x1="18.42" y1="2" x2="18.42" y2="7.49" style="fill:none;stroke:#000000;stroke-miterlimit:10"/></svg>