<svg xmlns="http://www.w3.org/2000/svg" viewBox="0 0 47 30"><title>cm_active_5x3</title><rect x="10.5" y="-6.5" width="26" height="43" rx="4" transform="translate(8.5 38.5) rotate(-90)" style="fill:none;stroke:#06f;stroke-miterlimit:10;stroke-width:1.5px"/><path d="M20.14,14.47a1.49,1.49,0,0,1,1,.34,1.21,1.21,0,0,1,.37.94,1.37,1.37,0,0,1-.43,1.07,1.78,1.78,0,0,1-1.22.38A2.34,2.34,0,0,1,18.77,17v-.62a2,2,0,0,0,.54.2,2.51,2.51,0,0,0,.57.08,1.06,1.06,0,0,0,.71-.21.76.76,0,0,0,.24-.61c0-.51-.32-.77-1-.77l-.34,0-.36.06L18.85,15,19,12.86h2.22v.61H19.62l-.09,1.06.25,0Z" style="fill:#06f"/><path d="M23.06,15.49,22,13.9h.79L23.5,15l.74-1.14H25l-1.09,1.59,1.15,1.65H24.3l-.8-1.21-.8,1.21h-.78Z" style="fill:#06f"/><path d="M28.16,13.84a1,1,0,0,1-.24.68,1.19,1.19,0,0,1-.67.37v0a1.31,1.31,0,0,1,.78.32.92.92,0,0,1,.25.68,1.14,1.14,0,0,1-.43,1,2,2,0,0,1-1.24.33A2.9,2.9,0,0,1,25.4,17v-.61a3.1,3.1,0,0,0,.58.21,3.06,3.06,0,0,0,.59.07,1.17,1.17,0,0,0,.74-.19.65.65,0,0,0,.25-.57.55.55,0,0,0-.27-.5,1.75,1.75,0,0,0-.86-.16h-.37v-.56h.38c.68,0,1-.24,1-.71a.54.54,0,0,0-.18-.43.8.8,0,0,0-.53-.14,1.76,1.76,0,0,0-.46.06,2.69,2.69,0,0,0-.54.27l-.33-.48a2.21,2.21,0,0,1,1.36-.43,1.58,1.58,0,0,1,1,.28A.89.89,0,0,1,28.16,13.84Z" style="fill:#06f"/></svg>