<svg xmlns="http://www.w3.org/2000/svg" viewBox="0 0 20 30"><title>cm_1x2</title><rect x="2" y="2" width="16" height="26" rx="4" style="fill:none;stroke:#000000;stroke-miterlimit:10;stroke-width:1.5px"/><path d="M7.21,17.17H6.52V14.41c0-.33,0-.59,0-.79l-.16.16-.66.54-.35-.44,1.26-1h.58Z" style="fill:#000000"/><path d="M9.56,15.52,8.47,13.93h.79L10,15.07l.74-1.14h.78l-1.09,1.59,1.15,1.65H10.8L10,16l-.8,1.21H8.42Z" style="fill:#000000"/><path d="M14.82,17.17h-2.9v-.52L13,15.54a8.64,8.64,0,0,0,.65-.71,1.64,1.64,0,0,0,.23-.39A1.1,1.1,0,0,0,14,14a.6.6,0,0,0-.18-.46.66.66,0,0,0-.48-.16,1.36,1.36,0,0,0-.48.09,2.48,2.48,0,0,0-.53.32l-.37-.45a2.66,2.66,0,0,1,.69-.43,2.18,2.18,0,0,1,.72-.12,1.4,1.4,0,0,1,1,.31,1.06,1.06,0,0,1,.36.84,1.68,1.68,0,0,1-.1.55,2.62,2.62,0,0,1-.32.54q-.23.27-.72.75l-.74.72v0h2Z" style="fill:#000000"/></svg>