<svg xmlns="http://www.w3.org/2000/svg" viewBox="0 0 22 30"><title>cm_3x5</title><rect x="2" y="2" width="18" height="26" rx="4" style="fill:none;stroke:#000000;stroke-miterlimit:10;stroke-width:1.5px"/><path d="M8.93,13.84a1,1,0,0,1-.24.68,1.19,1.19,0,0,1-.67.37v0a1.31,1.31,0,0,1,.78.32.92.92,0,0,1,.25.68,1.14,1.14,0,0,1-.43,1,2,2,0,0,1-1.24.33A2.9,2.9,0,0,1,6.17,17v-.61a3.1,3.1,0,0,0,.58.21,3.15,3.15,0,0,0,.59.07,1.17,1.17,0,0,0,.74-.19.65.65,0,0,0,.25-.57.55.55,0,0,0-.27-.5,1.75,1.75,0,0,0-.86-.16H6.83v-.56h.38c.68,0,1-.24,1-.71a.54.54,0,0,0-.18-.43.79.79,0,0,0-.52-.14,1.78,1.78,0,0,0-.47.06,2.69,2.69,0,0,0-.54.27l-.33-.48a2.23,2.23,0,0,1,1.36-.43,1.63,1.63,0,0,1,1,.28A.9.9,0,0,1,8.93,13.84Z" style="fill:#000000"/><path d="M10.56,15.49,9.47,13.9h.79L11,15l.74-1.14h.78l-1.09,1.59,1.15,1.65H11.8L11,15.93l-.8,1.21H9.42Z" style="fill:#000000"/><path d="M14.37,14.47a1.45,1.45,0,0,1,1,.34,1.18,1.18,0,0,1,.38.94,1.37,1.37,0,0,1-.43,1.07,1.78,1.78,0,0,1-1.22.38A2.31,2.31,0,0,1,13,17v-.62a1.9,1.9,0,0,0,.54.2,2.51,2.51,0,0,0,.57.08,1.06,1.06,0,0,0,.71-.21.76.76,0,0,0,.24-.61c0-.51-.32-.77-1-.77l-.33,0-.36.06L13.08,15l.17-2.09h2.22v.61H13.85l-.09,1.06.25,0Z" style="fill:#000000"/></svg>