<svg xmlns="http://www.w3.org/2000/svg" viewBox="0 0 39 30"><title>cm_4x3</title><rect x="2" y="2" width="35" height="26" rx="4" style="fill:none;stroke:#000000;stroke-miterlimit:10;stroke-width:1.5px"/><path d="M17.74,16.21h-.57v.93h-.68v-.93H14.54v-.53l1.95-2.83h.68v2.79h.57Zm-1.25-.57V14.56c0-.38,0-.69,0-.94h0a2.57,2.57,0,0,1-.26.47l-1.06,1.55Z" style="fill:#000000"/><path d="M19.06,15.49,18,13.9h.79L19.5,15l.74-1.14H21l-1.09,1.59,1.15,1.65H20.3l-.8-1.21-.8,1.21h-.78Z" style="fill:#000000"/><path d="M24.16,13.84a1,1,0,0,1-.24.68,1.19,1.19,0,0,1-.67.37v0a1.31,1.31,0,0,1,.78.32.92.92,0,0,1,.25.68,1.14,1.14,0,0,1-.43,1,2,2,0,0,1-1.24.33A2.9,2.9,0,0,1,21.4,17v-.61a3.1,3.1,0,0,0,.58.21,3.06,3.06,0,0,0,.59.07,1.17,1.17,0,0,0,.74-.19.65.65,0,0,0,.25-.57.55.55,0,0,0-.27-.5,1.75,1.75,0,0,0-.86-.16h-.37v-.56h.38c.68,0,1-.24,1-.71a.54.54,0,0,0-.18-.43.8.8,0,0,0-.53-.14,1.76,1.76,0,0,0-.46.06,2.69,2.69,0,0,0-.54.27l-.33-.48a2.21,2.21,0,0,1,1.36-.43,1.58,1.58,0,0,1,1,.28A.89.89,0,0,1,24.16,13.84Z" style="fill:#000000"/></svg>