<svg xmlns="http://www.w3.org/2000/svg" viewBox="0 0 22 30"><title>cm_9x16</title><rect x="2" y="2" width="18" height="26" rx="4" style="fill:none;stroke:#000000;stroke-miterlimit:10;stroke-width:1.5px"/><path d="M7.37,14.69a2.91,2.91,0,0,1-.51,1.88,1.85,1.85,0,0,1-1.53.63,2.35,2.35,0,0,1-.56-.05v-.58a1.88,1.88,0,0,0,.52.08,1.34,1.34,0,0,0,1-.38,1.79,1.79,0,0,0,.38-1.17h0a1,1,0,0,1-.42.38,1.41,1.41,0,0,1-.57.11,1.15,1.15,0,0,1-.89-.35,1.37,1.37,0,0,1-.33-1,1.49,1.49,0,0,1,.38-1.07,1.33,1.33,0,0,1,1-.4,1.46,1.46,0,0,1,.79.22,1.5,1.5,0,0,1,.53.65A2.59,2.59,0,0,1,7.37,14.69ZM5.88,13.37a.66.66,0,0,0-.55.24,1,1,0,0,0-.19.65.87.87,0,0,0,.18.58.63.63,0,0,0,.53.2.85.85,0,0,0,.59-.2.63.63,0,0,0,.24-.49,1.38,1.38,0,0,0-.1-.49.94.94,0,0,0-.29-.36A.74.74,0,0,0,5.88,13.37Z" style="fill:#000000"/><path d="M8.85,15.48,7.76,13.9h.79L9.28,15,10,13.9h.78L9.72,15.48l1.14,1.66h-.78l-.8-1.21-.79,1.21H7.71Z" style="fill:#000000"/><path d="M13.23,17.14h-.69V14.38c0-.34,0-.6,0-.79a.86.86,0,0,1-.17.15c-.06.06-.28.24-.65.54l-.35-.43,1.26-1h.58Z" style="fill:#000000"/><path d="M14.64,15.31c0-1.67.68-2.51,2.05-2.51a2.76,2.76,0,0,1,.54,0v.58a1.61,1.61,0,0,0-.51-.07,1.35,1.35,0,0,0-1,.37,1.8,1.8,0,0,0-.37,1.18h0a1,1,0,0,1,.39-.36,1.22,1.22,0,0,1,.59-.13,1.17,1.17,0,0,1,.9.35,1.37,1.37,0,0,1,.33,1,1.49,1.49,0,0,1-.38,1.07,1.35,1.35,0,0,1-1,.39,1.47,1.47,0,0,1-.8-.22,1.44,1.44,0,0,1-.53-.65A2.59,2.59,0,0,1,14.64,15.31Zm1.49,1.32a.69.69,0,0,0,.55-.23,1,1,0,0,0,.19-.65.86.86,0,0,0-.18-.58.67.67,0,0,0-.54-.21,1,1,0,0,0-.41.09.81.81,0,0,0-.29.26.57.57,0,0,0-.11.34,1.09,1.09,0,0,0,.22.7A.69.69,0,0,0,16.13,16.63Z" style="fill:#000000"/></svg>