<svg xmlns="http://www.w3.org/2000/svg" viewBox="0 0 24 30"><title>cm_active_3x4</title><rect x="2" y="2" width="20" height="26" rx="4" style="fill:none;stroke:#06f;stroke-miterlimit:10;stroke-width:1.5px"/><path d="M9.93,13.84a1,1,0,0,1-.24.68,1.19,1.19,0,0,1-.67.37v0a1.31,1.31,0,0,1,.78.32.92.92,0,0,1,.25.68,1.14,1.14,0,0,1-.43,1,2,2,0,0,1-1.24.33A2.9,2.9,0,0,1,7.17,17v-.61a3.1,3.1,0,0,0,.58.21,3.15,3.15,0,0,0,.59.07,1.17,1.17,0,0,0,.74-.19.65.65,0,0,0,.25-.57.55.55,0,0,0-.27-.5,1.75,1.75,0,0,0-.86-.16H7.83v-.56h.38c.68,0,1-.24,1-.71a.54.54,0,0,0-.18-.43.79.79,0,0,0-.52-.14,1.78,1.78,0,0,0-.47.06,2.69,2.69,0,0,0-.54.27l-.33-.48a2.23,2.23,0,0,1,1.36-.43,1.63,1.63,0,0,1,1,.28A.9.9,0,0,1,9.93,13.84Z" style="fill:#06f"/><path d="M11.56,15.49,10.47,13.9h.79L12,15l.74-1.14h.78l-1.09,1.59,1.15,1.65H12.8L12,15.93l-.8,1.21h-.78Z" style="fill:#06f"/><path d="M17,16.21h-.58v.93h-.67v-.93h-2v-.53l2-2.83h.67v2.79H17Zm-1.25-.57V14.56c0-.38,0-.69,0-.94h0a3.37,3.37,0,0,1-.26.47l-1.06,1.55Z" style="fill:#06f"/></svg>