<svg xmlns="http://www.w3.org/2000/svg" viewBox="0 0 43 30"><title>cm_active_3x2</title><rect x="2" y="2" width="39" height="26" rx="4" style="fill:none;stroke:#06f;stroke-miterlimit:10;stroke-width:1.5px"/><path d="M19.43,13.84a1,1,0,0,1-.24.68,1.19,1.19,0,0,1-.67.37v0a1.31,1.31,0,0,1,.78.32.92.92,0,0,1,.25.68,1.14,1.14,0,0,1-.43,1,2,2,0,0,1-1.24.33A2.9,2.9,0,0,1,16.67,17v-.61a3.1,3.1,0,0,0,.58.21,3.15,3.15,0,0,0,.59.07,1.17,1.17,0,0,0,.74-.19.65.65,0,0,0,.25-.57.55.55,0,0,0-.27-.5,1.75,1.75,0,0,0-.86-.16h-.37v-.56h.38c.68,0,1-.24,1-.71a.54.54,0,0,0-.18-.43.79.79,0,0,0-.52-.14,1.78,1.78,0,0,0-.47.06,2.69,2.69,0,0,0-.54.27l-.33-.48a2.23,2.23,0,0,1,1.36-.43,1.63,1.63,0,0,1,1,.28A.9.9,0,0,1,19.43,13.84Z" style="fill:#06f"/><path d="M21.06,15.49,20,13.9h.79L21.5,15l.74-1.14H23l-1.09,1.59,1.15,1.65H22.3l-.8-1.21-.8,1.21h-.78Z" style="fill:#06f"/><path d="M26.32,17.14h-2.9v-.52l1.1-1.11a8.64,8.64,0,0,0,.65-.71,1.64,1.64,0,0,0,.23-.39,1.1,1.1,0,0,0,.08-.4.62.62,0,0,0-.18-.46.66.66,0,0,0-.48-.16,1.36,1.36,0,0,0-.48.09,2.2,2.2,0,0,0-.53.33l-.37-.46a2.66,2.66,0,0,1,.69-.43,2.18,2.18,0,0,1,.72-.12,1.4,1.4,0,0,1,1,.31,1.06,1.06,0,0,1,.36.84,1.68,1.68,0,0,1-.1.55,2.62,2.62,0,0,1-.32.54q-.22.27-.72.75l-.74.72v0h2Z" style="fill:#06f"/></svg>