<svg xmlns="http://www.w3.org/2000/svg" viewBox="0 0 30 30"><title>cm_active_1x1</title><rect x="2" y="2" width="26" height="26" rx="4" transform="translate(0 30) rotate(-90)" style="fill:none;stroke:#06f;stroke-miterlimit:10;stroke-width:1.5px"/><path d="M12.21,17.14h-.69V14.38c0-.33,0-.6,0-.79,0,.05-.1.1-.16.16l-.66.53-.35-.43,1.26-1h.58Z" style="fill:#06f"/><path d="M14.56,15.49,13.47,13.9h.79L15,15l.74-1.13h.78l-1.09,1.59,1.15,1.65H15.8L15,15.93l-.8,1.21h-.78Z" style="fill:#06f"/><path d="M18.94,17.14h-.69V14.38c0-.33,0-.6,0-.79,0,.05-.1.1-.16.16l-.66.53-.35-.43,1.26-1h.58Z" style="fill:#06f"/></svg>