<svg xmlns="http://www.w3.org/2000/svg" viewBox="0 0 30 30"><title>cm_border_frame</title><rect x="2" y="2" width="26" height="26" rx="4" transform="translate(0 30) rotate(-90)" style="fill:none;stroke:#000000;stroke-miterlimit:10;stroke-width:1.5px"/><rect x="6.49" y="6.48" width="17.01" height="17.01" style="fill:none;stroke:#000000;stroke-miterlimit:10"/><rect x="9.81" y="9.79" width="10.38" height="10.38" style="fill:none;stroke:#000000;stroke-miterlimit:10"/><line x1="9.81" y1="9.79" x2="6.49" y2="6.48" style="fill:none;stroke:#000000;stroke-miterlimit:10"/><line x1="9.81" y1="20.18" x2="6.49" y2="23.49" style="fill:none;stroke:#000000;stroke-miterlimit:10"/><line x1="20.19" y1="20.18" x2="23.51" y2="23.49" style="fill:none;stroke:#000000;stroke-miterlimit:10"/><line x1="20.19" y1="9.79" x2="23.51" y2="6.48" style="fill:none;stroke:#000000;stroke-miterlimit:10"/><line x1="20.19" y1="17.39" x2="23.51" y2="17.39" style="fill:none;stroke:#000000;stroke-miterlimit:10"/><line x1="20.19" y1="12.64" x2="23.51" y2="12.64" style="fill:none;stroke:#000000;stroke-miterlimit:10"/><line x1="6.49" y1="17.39" x2="9.81" y2="17.39" style="fill:none;stroke:#000000;stroke-miterlimit:10"/><line x1="6.49" y1="12.64" x2="9.81" y2="12.64" style="fill:none;stroke:#000000;stroke-miterlimit:10"/><line x1="12.63" y1="20.18" x2="12.63" y2="23.52" style="fill:none;stroke:#000000;stroke-miterlimit:10"/><line x1="17.37" y1="20.18" x2="17.37" y2="23.52" style="fill:none;stroke:#000000;stroke-miterlimit:10"/><line x1="12.63" y1="6.51" x2="12.63" y2="9.79" style="fill:none;stroke:#000000;stroke-miterlimit:10"/><line x1="17.37" y1="6.51" x2="17.37" y2="9.79" style="fill:none;stroke:#000000;stroke-miterlimit:10"/></svg>